<?xml version="1.0" encoding="UTF-8"?>
<svg version="1.1" xmlns="http://www.w3.org/2000/svg" width="1080" height="1157">
<path d="M0 0 C1.55809891 -0.00855011 1.55809891 -0.00855011 3.14767456 -0.01727295 C5.34111533 -0.02667004 7.53456987 -0.03323572 9.72802734 -0.03710938 C12.99734013 -0.04670665 16.26599336 -0.07773635 19.53515625 -0.109375 C38.78365128 -0.20713521 57.72773583 1.54580528 76.4921875 5.953125 C77.61020752 6.21061523 78.72822754 6.46810547 79.88012695 6.73339844 C105.46655688 12.76993349 129.71322688 21.85592464 152.9296875 34.203125 C153.6215918 34.5630957 154.31349609 34.92306641 155.02636719 35.29394531 C188.59872729 52.81061413 220.83965912 79.07878504 243.9296875 109.203125 C244.96679668 110.52394911 246.00461252 111.84421853 247.04296875 113.1640625 C252.8061537 120.54418987 258.32624135 127.95084679 263.12695312 136.0012207 C265.22463338 139.51920741 265.22463338 139.51920741 268.9296875 141.203125 C270.63851953 141.37327922 272.35197133 141.49880135 274.06640625 141.59765625 C337.49664363 145.62411451 397.77915698 167.48521051 446.9296875 208.203125 C447.46513184 208.63705566 448.00057617 209.07098633 448.55224609 209.51806641 C463.66365477 221.77554803 478.19147944 235.65535652 489.9296875 251.203125 C490.71988281 252.19957031 491.51007812 253.19601563 492.32421875 254.22265625 C521.50511319 291.10915707 540.72358059 334.58143266 549.7421875 380.640625 C549.93707764 381.63280029 550.13196777 382.62497559 550.33276367 383.6472168 C553.35846615 399.97587559 554.27932223 416.02451453 554.24536133 432.60498047 C554.24221184 435.80341071 554.2657257 439.00090253 554.29101562 442.19921875 C554.3480673 460.72554953 552.65596877 479.08171201 548.6796875 497.203125 C548.46844238 498.18055664 548.25719727 499.15798828 548.03955078 500.16503906 C542.51486053 524.96863765 534.69580454 550.29575203 522.12719727 572.5 C520.05525991 576.2780152 519.79937354 578.09397887 520.9296875 582.203125 C521.60471549 583.77438039 522.33806064 585.3214269 523.1171875 586.84375 C523.78778198 588.18288452 523.78778198 588.18288452 524.47192383 589.54907227 C524.95298584 590.50740967 525.43404785 591.46574707 525.9296875 592.453125 C537.2750888 615.66459683 544.69733447 640.15084109 549.6796875 665.453125 C549.87852539 666.45722412 550.07736328 667.46132324 550.28222656 668.49584961 C553.35468239 684.87657143 554.27944233 700.96587759 554.24536133 717.60498047 C554.24221184 720.80341071 554.2657257 724.00090253 554.29101562 727.19921875 C554.42877667 771.65231922 543.05475429 815.64077231 522.9296875 855.203125 C522.52427734 856.00169922 522.11886719 856.80027344 521.70117188 857.62304688 C510.82166387 878.72323833 497.03899539 898.52109914 480.96484375 915.984375 C479.1342433 917.98011599 477.37132267 920.01543111 475.6171875 922.078125 C468.29647888 930.44706442 460.38775688 938.11061681 451.671875 945.01171875 C449.85351066 946.46485606 448.06587185 947.9573521 446.3125 949.48828125 C399.19160676 990.53551828 328.68357075 1017.728244 265.9296875 1015.203125 C265.58744141 1016.21052734 265.58744141 1016.21052734 265.23828125 1017.23828125 C263.56428291 1021.03101182 261.35909069 1024.24891094 258.9921875 1027.640625 C258.50637207 1028.34074707 258.02055664 1029.04086914 257.52001953 1029.76220703 C250.5826438 1039.66221085 243.15422732 1049.08726693 234.96484375 1057.984375 C233.1342433 1059.98011599 231.37132267 1062.01543111 229.6171875 1064.078125 C222.29647888 1072.44706442 214.38775688 1080.11061681 205.671875 1087.01171875 C203.85351066 1088.46485606 202.06587185 1089.9573521 200.3125 1091.48828125 C162.05062815 1124.81838208 110.7421779 1146.31203741 60.9296875 1154.203125 C59.99157227 1154.35265625 59.05345703 1154.5021875 58.08691406 1154.65625 C-16.41983062 1165.93557448 -95.23656737 1147.7063913 -156.5546875 1103.734375 C-159.43195894 1101.60198094 -162.26125492 1099.42433794 -165.0703125 1097.203125 C-165.88113281 1096.57277344 -166.69195312 1095.94242188 -167.52734375 1095.29296875 C-170.06843099 1093.29376118 -172.57424244 1091.25828342 -175.0703125 1089.203125 C-175.58287598 1088.78224609 -176.09543945 1088.36136719 -176.62353516 1087.92773438 C-188.9914865 1077.71787552 -200.90763601 1066.64402787 -211.0703125 1054.203125 C-211.47749512 1053.71505371 -211.88467773 1053.22698242 -212.30419922 1052.72412109 C-218.65179692 1045.10298214 -224.57378908 1037.25080998 -230.1953125 1029.078125 C-230.7517041 1028.27270264 -231.3080957 1027.46728027 -231.88134766 1026.63745117 C-234.38973261 1022.93955095 -236.67554837 1019.49073325 -238.0703125 1015.203125 C-238.86566406 1015.24953125 -239.66101563 1015.2959375 -240.48046875 1015.34375 C-313.29538024 1017.5243035 -385.07225152 981.50807956 -437.2265625 932.88671875 C-444.23963589 926.26861241 -450.79887066 919.56710951 -456.80859375 912.015625 C-458.29027121 910.17312453 -459.80784371 908.35879625 -461.36328125 906.578125 C-495.87970129 866.93773396 -516.31817499 814.67892017 -524.0703125 763.203125 C-524.25795166 761.97070068 -524.44559082 760.73827637 -524.63891602 759.46850586 C-526.25793933 747.95669056 -526.40967661 736.48757748 -526.38598633 724.87670898 C-526.38284073 721.66940806 -526.40632914 718.46304626 -526.43164062 715.25585938 C-526.48897135 696.57230306 -524.64162711 678.14344202 -520.8828125 659.828125 C-520.57089966 658.30251953 -520.57089966 658.30251953 -520.25268555 656.74609375 C-514.996069 632.16130252 -506.66502666 607.03857139 -494.31835938 585.05810547 C-492.23855274 581.2254721 -491.93072862 579.36211242 -493.0703125 575.203125 C-493.93955338 573.06327539 -493.93955338 573.06327539 -495.0390625 570.96484375 C-495.6417395 569.75393066 -495.6417395 569.75393066 -496.2565918 568.51855469 C-496.69011963 567.65133789 -497.12364746 566.78412109 -497.5703125 565.890625 C-509.03412545 542.29777154 -516.8400803 517.48355921 -521.8828125 491.765625 C-522.0777832 490.77320801 -522.27275391 489.78079102 -522.47363281 488.75830078 C-525.498726 472.42973339 -526.41994691 456.38157797 -526.38598633 439.80126953 C-526.38283684 436.60283929 -526.4063507 433.40534747 -526.43164062 430.20703125 C-526.48869191 411.68082774 -524.79693352 393.32437082 -520.8203125 375.203125 C-520.60906738 374.22641846 -520.39782227 373.24971191 -520.18017578 372.2434082 C-510.65886529 329.52054302 -492.26331802 289.54699342 -465.0703125 255.203125 C-463.90048828 253.71425781 -463.90048828 253.71425781 -462.70703125 252.1953125 C-449.59211725 235.84243572 -434.71633004 219.98054617 -418.0703125 207.203125 C-416.80785304 206.20145369 -415.54619423 205.19877278 -414.28515625 204.1953125 C-404.00522903 196.08909834 -393.3208439 188.89134381 -382.0703125 182.203125 C-381.28849609 181.73664551 -380.50667969 181.27016602 -379.70117188 180.78955078 C-339.07209677 156.82644848 -291.22874267 143.02684633 -244.09765625 141.37890625 C-241.02362375 141.33239754 -241.02362375 141.33239754 -238.0703125 140.203125 C-236.71413128 138.61985594 -236.71413128 138.61985594 -235.50390625 136.625 C-235.02381104 135.88290283 -234.54371582 135.14080566 -234.04907227 134.3762207 C-233.28614868 133.17678833 -233.28614868 133.17678833 -232.5078125 131.953125 C-227.36394614 124.06689849 -222.03786179 116.49704239 -216.0703125 109.203125 C-215.61672363 108.64657227 -215.16313477 108.09001953 -214.69580078 107.51660156 C-202.05378954 92.14990761 -187.9735671 77.21619886 -172.0703125 65.203125 C-171.10867188 64.43613281 -170.14703125 63.66914062 -169.15625 62.87890625 C-155.3858625 51.9341589 -140.6128387 42.4228422 -125.0703125 34.203125 C-124.42916504 33.8632959 -123.78801758 33.5234668 -123.12744141 33.17333984 C-85.61244524 13.46877893 -42.6229175 0.18736519 0 0 Z M-155.0703125 85.203125 C-156.12628697 86.03257133 -157.18227556 86.86199968 -158.23828125 87.69140625 C-173.49391452 100.06563918 -188.39890664 114.6171987 -199.88574219 130.57861328 C-201.11352287 132.26238341 -202.38627972 133.90300458 -203.671875 135.54296875 C-245.32787119 189.3810229 -262.52676061 261.3990577 -254.48291016 328.4753418 C-247.72079986 379.50163547 -227.66137055 428.00448352 -194.0703125 467.203125 C-193.5738623 467.78835938 -193.07741211 468.37359375 -192.56591797 468.9765625 C-184.34660502 478.66087473 -175.99722563 488.03411555 -166.30859375 496.29296875 C-164.6830956 497.68017398 -163.0789399 499.09251071 -161.48828125 500.51953125 C-123.28829806 534.11348763 -61.8001983 566.21895564 -9.0703125 564.203125 C-9.63194692 560.17157625 -10.51037172 556.73110525 -12.109375 552.9921875 C-12.5216333 552.00734375 -12.9338916 551.0225 -13.35864258 550.0078125 C-13.79974365 548.95851563 -14.24084473 547.90921875 -14.6953125 546.828125 C-23.00749183 526.48074195 -28.21656442 505.81063637 -32.0703125 484.203125 C-32.19776855 483.49526855 -32.32522461 482.78741211 -32.45654297 482.05810547 C-37.71900612 452.28961034 -37.08699643 418.95442911 -32.0703125 389.203125 C-31.86583496 387.96997559 -31.66135742 386.73682617 -31.45068359 385.46630859 C-19.50901224 316.41006287 17.47038939 248.90145212 73.9296875 206.203125 C75.11506502 205.27796058 76.29992364 204.35213109 77.484375 203.42578125 C98.4267741 187.2083045 121.94475648 172.90965335 146.94140625 163.93066406 C149.22286845 163.09584611 151.48094332 162.20840645 153.7421875 161.3203125 C175.20983293 153.02739709 197.41901614 148.03609897 220.140625 144.63037109 C225.07890713 143.87389405 230.00370525 143.03540538 234.9296875 142.203125 C233.72049622 138.89145639 232.44378377 136.28913001 230.20703125 133.56640625 C229.40724854 132.58546997 229.40724854 132.58546997 228.59130859 131.5847168 C227.73786865 130.56051636 227.73786865 130.56051636 226.8671875 129.515625 C226.27502441 128.79866455 225.68286133 128.0817041 225.07275391 127.34301758 C223.36760768 125.28844854 221.65164605 123.24361144 219.9296875 121.203125 C219.20652344 120.34460938 218.48335937 119.48609375 217.73828125 118.6015625 C206.24635054 105.46129425 193.76524906 92.76309512 179.64208984 82.45800781 C177.83173442 81.13134302 176.04631798 79.77514186 174.26171875 78.4140625 C165.83456686 72.03666944 157.1629657 66.34198076 147.9296875 61.203125 C146.67671875 60.50485596 146.67671875 60.50485596 145.3984375 59.79248047 C52.95466556 8.80562278 -65.13258598 14.73327393 -155.0703125 85.203125 Z M144.9296875 192.203125 C143.67381836 192.78682861 143.67381836 192.78682861 142.39257812 193.38232422 C123.04164616 202.45911609 105.54380679 213.7859524 88.9296875 227.203125 C88.33381836 227.68185059 87.73794922 228.16057617 87.12402344 228.65380859 C72.76359378 240.2918244 59.09406918 253.44726024 47.9296875 268.203125 C46.99287424 269.4002773 46.05531992 270.59684991 45.1171875 271.79296875 C26.97313071 295.17077556 13.53169815 321.26775449 3.9296875 349.203125 C3.64399902 350.0060498 3.35831055 350.80897461 3.06396484 351.63623047 C-0.54225059 361.79406335 -3.07816145 372.10080349 -5.3203125 382.640625 C-5.56676514 383.78233154 -5.81321777 384.92403809 -6.06713867 386.1003418 C-9.52054363 403.08565086 -10.45719698 420.15557484 -10.3828125 437.453125 C-10.38098969 438.34288025 -10.37916687 439.2326355 -10.37728882 440.14935303 C-10.32855331 454.34551523 -9.68907802 468.21780275 -7.0703125 482.203125 C-6.80492676 483.63446777 -6.80492676 483.63446777 -6.53417969 485.09472656 C-2.19305751 507.8200138 5.05447663 528.87101579 13.9296875 550.203125 C14.9196875 550.203125 15.9096875 550.203125 16.9296875 550.203125 C18.72410481 548.18137442 20.32621787 546.18136857 21.9296875 544.015625 C22.92127072 542.71729183 23.9148077 541.42044879 24.91015625 540.125 C25.6669165 539.1359668 25.6669165 539.1359668 26.43896484 538.12695312 C54.97507276 501.30013845 91.33097738 473.74400854 132.9296875 453.203125 C134.06277344 452.63899902 134.06277344 452.63899902 135.21875 452.06347656 C155.98320316 441.86322628 178.79893894 434.9322918 201.48583984 430.66601562 C203.73003815 430.2409407 205.96441635 429.78409776 208.19921875 429.3125 C280.43870137 414.61972387 359.88546252 432.64363114 421.17871094 472.671875 C429.87580523 478.48760718 438.08484633 484.76306498 445.96484375 491.640625 C448.66750472 493.9765217 451.43240271 496.18621732 454.2421875 498.390625 C459.17450098 502.40310909 463.68246723 506.77357336 468.1796875 511.265625 C468.84137939 511.92651123 469.50307129 512.58739746 470.18481445 513.26831055 C476.87519328 520.03415423 483.01879822 527.18976772 488.9296875 534.640625 C489.44515137 535.28588135 489.96061523 535.9311377 490.49169922 536.59594727 C493.94527799 540.92837238 497.32806669 545.30839839 500.625 549.76171875 C501.05554687 550.23738281 501.48609375 550.71304687 501.9296875 551.203125 C502.5896875 551.203125 503.2496875 551.203125 503.9296875 551.203125 C515.97023768 522.40416913 525.01505162 493.41684186 527.9296875 462.203125 C528.04054688 461.02621094 528.15140625 459.84929687 528.265625 458.63671875 C533.77541371 389.61544673 512.27281312 319.49477326 467.9296875 266.203125 C467.51025879 265.69346191 467.09083008 265.18379883 466.65869141 264.65869141 C455.60402291 251.26424323 443.669168 238.86803643 429.9296875 228.203125 C428.84096711 227.32605373 427.75380527 226.44704532 426.66796875 225.56640625 C379.67902894 187.67038212 320.08345263 167.00300364 259.8046875 166.953125 C259.06357727 166.95245026 258.32246704 166.95177551 257.55889893 166.95108032 C218.53825713 167.00698681 180.26600568 175.62975831 144.9296875 192.203125 Z M-397.0703125 224.203125 C-398.56111328 225.37488281 -398.56111328 225.37488281 -400.08203125 226.5703125 C-415.0943405 238.60585858 -429.24189733 252.00890063 -441.0703125 267.203125 C-442.0897225 268.4818675 -443.10926247 269.7605064 -444.12890625 271.0390625 C-475.82795767 311.18458442 -494.97334836 360.39444035 -500.0703125 411.203125 C-500.18246094 412.28980469 -500.29460937 413.37648438 -500.41015625 414.49609375 C-506.37337576 482.86889829 -484.7226097 554.44871772 -440.87451172 607.40014648 C-438.64474883 610.03579154 -436.37041058 612.62875603 -434.0703125 615.203125 C-433.60737793 615.72245605 -433.14444336 616.24178711 -432.66748047 616.77685547 C-424.26943684 626.15539608 -415.70909255 635.105589 -405.8515625 642.97265625 C-404.09864428 644.37843757 -402.36599875 645.8102526 -400.6640625 647.27734375 C-386.3023267 659.57117139 -369.83733367 669.5555213 -353.0703125 678.203125 C-352.40177246 678.55036621 -351.73323242 678.89760742 -351.04443359 679.25537109 C-287.9570948 711.59477841 -213.86769148 714.95686676 -146.94897461 693.58935547 C-138.77130215 690.88551604 -130.83441917 687.9233174 -123.08447266 684.16601562 C-120.77679735 683.06280697 -118.44681642 682.01611608 -116.11328125 680.96875 C-103.7478481 675.34892643 -92.31730385 668.80842966 -81.0703125 661.203125 C-80.41949707 660.76468262 -79.76868164 660.32624023 -79.09814453 659.87451172 C-70.26685501 653.87385251 -62.09439989 647.23722758 -54.0703125 640.203125 C-53.24273437 639.48769531 -52.41515625 638.77226563 -51.5625 638.03515625 C-35.687917 624.072858 -21.89576552 608.73145828 -10.0703125 591.203125 C-10.0703125 590.873125 -10.0703125 590.543125 -10.0703125 590.203125 C-10.90876709 590.08308105 -11.74722168 589.96303711 -12.61108398 589.83935547 C-61.79906921 582.70852311 -110.00484275 569.34288015 -151.0703125 540.203125 C-152.40395807 539.29021893 -153.73867639 538.37887889 -155.07421875 537.46875 C-174.23987383 524.31062828 -193.78141256 508.33760956 -208.3203125 490.078125 C-211.10960029 486.59739488 -213.95174065 483.19915133 -216.91162109 479.86254883 C-265.93584258 423.98347156 -285.3991485 344.57732341 -280.65673828 271.7590332 C-277.98478595 239.45802981 -269.14919253 208.15849945 -257.0703125 178.203125 C-256.32518353 176.33997861 -255.58038859 174.4766986 -254.8359375 172.61328125 C-254.24750567 171.1431852 -253.65900534 169.67311655 -253.0703125 168.203125 C-303.46483269 167.34245989 -358.51236307 193.59809544 -397.0703125 224.203125 Z M222.9296875 452.203125 C221.87201172 452.37021973 220.81433594 452.53731445 219.72460938 452.70947266 C166.25537837 461.27937795 117.41946646 484.42947178 77.33984375 521.015625 C75.00387496 523.13579117 72.62641875 525.2000981 70.2421875 527.265625 C66.78005491 530.3397077 63.70607855 533.56514888 60.72265625 537.1015625 C58.79149221 539.36510554 56.77007377 541.52596882 54.7421875 543.703125 C48.61983954 550.46101081 43.31603319 557.85727961 37.9296875 565.203125 C38.2596875 565.863125 38.5896875 566.523125 38.9296875 567.203125 C41.76928772 567.84657124 41.76928772 567.84657124 45.26171875 568.24609375 C46.61703844 568.42988287 47.97225891 568.61440477 49.32739258 568.79956055 C50.04633698 568.89506195 50.76528137 568.99056335 51.50601196 569.08895874 C87.34029354 573.92310236 120.79435991 584.5880206 152.9296875 601.203125 C153.77241211 601.63625 154.61513672 602.069375 155.48339844 602.515625 C166.98966742 608.49048273 177.50578589 615.51559787 187.9296875 623.203125 C189.05552244 624.01887427 190.18179411 624.83402129 191.30859375 625.6484375 C197.88512616 630.4695481 203.95142886 635.6648662 209.9296875 641.203125 C211.6561442 642.76861882 213.38529938 644.33114203 215.1171875 645.890625 C215.94476562 646.63957031 216.77234375 647.38851562 217.625 648.16015625 C219.54269112 649.86007566 221.49618648 651.47304584 223.4921875 653.078125 C227.35685707 656.35723858 230.3485756 660.2822156 233.4921875 664.23828125 C235.93856995 667.21392913 238.52089124 669.97929927 241.1796875 672.765625 C253.53273285 685.98375396 263.03514828 701.53282957 271.9296875 717.203125 C272.36909668 717.97205078 272.80850586 718.74097656 273.26123047 719.53320312 C310.54966841 785.44097605 318.2514144 866.3371888 298.921875 939.0390625 C294.15320979 955.94871459 287.90235174 972.0978611 280.9296875 988.203125 C285.93380464 989.87116405 290.9128935 988.41802586 296.0546875 987.640625 C297.25939697 987.45862549 298.46410645 987.27662598 299.70532227 987.08911133 C350.97391229 979.00500313 401.17157997 956.83397699 439.0859375 920.87109375 C441.29462913 918.79892839 443.52954083 916.81295155 445.82421875 914.83984375 C468.5501924 895.03700583 486.12746704 868.79137818 499.9296875 842.203125 C500.2798291 841.53023437 500.6299707 840.85734375 500.99072266 840.1640625 C513.55728614 815.64393863 521.46637158 788.90033766 525.7421875 761.765625 C525.84768921 761.10102264 525.95319092 760.43642029 526.06188965 759.75167847 C536.77508596 691.25616842 519.13008381 618.30034358 478.3046875 562.265625 C463.78501888 542.77273422 447.18818971 524.1332583 427.9296875 509.203125 C426.97191406 508.42839844 426.01414062 507.65367187 425.02734375 506.85546875 C370.12820607 463.17153952 292.66876326 440.19552149 222.9296875 452.203125 Z M36.9296875 593.203125 C37.53921768 596.68980813 38.44731785 599.7806826 39.78515625 603.0546875 C40.15729248 603.97805908 40.52942871 604.90143066 40.9128418 605.8527832 C41.31027588 606.834646 41.70770996 607.81650879 42.1171875 608.828125 C51.97632067 633.71497312 58.93446629 659.54840416 61.9296875 686.203125 C62.0239502 687.03875977 62.11821289 687.87439453 62.21533203 688.73535156 C69.94838064 767.72588382 47.1424536 847.00139173 -3.21264648 908.45751953 C-8.59824512 914.92795803 -14.2344821 921.1375375 -20.0703125 927.203125 C-20.56917969 927.72390625 -21.06804687 928.2446875 -21.58203125 928.78125 C-28.34776321 935.80787137 -35.38726339 942.17312705 -43.0703125 948.203125 C-44.12745741 949.0610784 -45.18340102 949.92051364 -46.23828125 950.78125 C-90.9295026 986.96887009 -145.58252953 1007.11700961 -202.3671875 1013.80859375 C-205.03185585 1014.05333475 -205.03185585 1014.05333475 -207.0703125 1015.203125 C-197.32226714 1036.60862666 -174.27120605 1057.27036551 -156.0703125 1071.203125 C-154.83227162 1072.19137973 -153.59537963 1073.18107472 -152.359375 1074.171875 C-114.93603099 1103.86390144 -70.88275569 1121.16965069 -24.0703125 1129.203125 C-23.29671387 1129.33734863 -22.52311523 1129.47157227 -21.72607422 1129.60986328 C43.46924844 1140.24392486 115.86678927 1120.6154455 169.14208984 1082.62548828 C189.34617423 1067.91412376 208.66345964 1051.07303336 223.9296875 1031.203125 C224.9194608 1029.96395465 225.9104365 1028.72574412 226.90234375 1027.48828125 C238.74320392 1012.55570057 248.97766225 996.4653719 257.01464844 979.16894531 C257.63145602 977.84382935 258.25732682 976.5228992 258.89160156 975.20605469 C288.9329956 912.82615903 291.6916194 839.59025682 269.9296875 774.203125 C258.08518222 740.42435067 240.32396647 709.44031172 215.9296875 683.203125 C214.82147672 681.91492639 213.71719394 680.62333642 212.6171875 679.328125 C205.36357466 671.01177354 197.36221984 663.31008881 188.9296875 656.203125 C188.1665625 655.51605469 187.4034375 654.82898438 186.6171875 654.12109375 C150.8502666 622.77305116 104.34159974 603.56764658 57.9296875 595.203125 C57.21232422 595.07180176 56.49496094 594.94047852 55.75585938 594.80517578 C49.42065416 593.6656699 43.36612075 592.95071585 36.9296875 593.203125 Z M-475.0703125 605.203125 C-505.44079894 659.93674891 -508.08652266 732.95042518 -491.48657227 792.140625 C-486.65926935 808.75095581 -480.58551964 824.62321171 -473.0703125 840.203125 C-472.72274902 840.92564453 -472.37518555 841.64816406 -472.01708984 842.39257812 C-461.79309005 863.33552216 -448.01109676 882.73891456 -432.23046875 899.85546875 C-430.79935701 901.41079995 -429.38993587 902.98639412 -428.00390625 904.58203125 C-409.54372018 925.76195008 -386.36748643 942.35032098 -362.0703125 956.203125 C-361.47428223 956.5444043 -360.87825195 956.88568359 -360.26416016 957.23730469 C-325.03435919 977.21838583 -282.58967005 989.24433362 -242.0703125 990.203125 C-241.28333984 990.22358887 -240.49636719 990.24405273 -239.68554688 990.26513672 C-166.30621535 991.9328488 -96.77789864 964.72843971 -43.50854492 914.49829102 C5.76119719 867.27196444 36.58076817 800.07977153 38.19296265 731.61160278 C38.25603505 727.37086888 38.26038576 723.1317162 38.2421875 718.890625 C38.24036469 717.99892609 38.23854187 717.10722717 38.23666382 716.18850708 C38.18909231 702.31048843 37.47956589 688.87037003 34.9296875 675.203125 C34.77935059 674.30126465 34.62901367 673.3994043 34.47412109 672.47021484 C32.27307754 659.2799528 28.69901163 646.68265822 24.4921875 634.015625 C24.26329834 633.32229065 24.03440918 632.6289563 23.79858398 631.91461182 C20.7354498 622.7041427 17.19339122 613.93649496 12.9296875 605.203125 C9.38250884 608.69518902 6.28654195 612.21402205 3.3046875 616.203125 C-5.17413862 627.32962014 -14.20894624 637.53474344 -24.0703125 647.453125 C-24.98393555 648.37601318 -25.89755859 649.29890137 -26.83886719 650.24975586 C-32.9424951 656.32556066 -39.32088723 661.85886553 -46.0703125 667.203125 C-47.11932858 668.06017202 -48.167691 668.91802109 -49.21484375 669.77734375 C-109.55256869 717.5704758 -188.881542 739.00636911 -265.10253906 730.5625 C-344.47831702 720.95069142 -415.13666817 680.57993627 -464.59716797 618.10107422 C-467.39824304 614.49226454 -470.05993908 610.78937274 -472.6796875 607.046875 C-473.13859375 606.4384375 -473.5975 605.83 -474.0703125 605.203125 C-474.4003125 605.203125 -474.7303125 605.203125 -475.0703125 605.203125 Z " fill="#FFFFFF" transform="translate(526.0703125,-0.203125)"/>
</svg>
